<?xml version="1.0" standalone="no"?>
<!DOCTYPE svg PUBLIC "-//W3C//DTD SVG 1.1//EN" "http://www.w3.org/Graphics/SVG/1.1/DTD/svg11.dtd">
<svg xmlns="http://www.w3.org/2000/svg">
<metadata>Copyright (C) 2015 by original authors @ fontello.com</metadata>
<defs>
<font id="fontello" horiz-adv-x="1000" >
<font-face font-family="fontello" font-weight="400" font-stretch="normal" units-per-em="1000" ascent="850" descent="-150" />
<missing-glyph horiz-adv-x="1000" />
<glyph glyph-name="angle-down" unicode="&#xe800;" d="m600 439q0-7-6-13l-260-260q-5-5-13-5t-12 5l-260 260q-6 6-6 13t6 13l27 28q6 6 13 6t13-6l219-219 220 219q5 6 13 6t12-6l28-28q6-5 6-13z" horiz-adv-x="642.9" />
<glyph glyph-name="collect" unicode="&#xe801;" d="m987 481q-5 12-17 12h-310l-140 328q-3 6-8 9t-9 2q-2 0-4 0t-3-1l-4-2-2-2q-2-1-3-3t-1-3l-138-328h-313q-12 0-16-12-2-5-1-11t5-9l258-227-85-304q-3-13 7-20 4-3 10-3t11 3l279 178 279-178q4-3 9-3 6 0 11 3 10 7 7 19l-42 166v1q-7 21-11 42t1 34q2 5 2 10t-3 8-8 7q-7 3-14 0t-9-9q-11-23-2-66 4-19 8-37l32-121-250 160q-10 6-20 0l-249-159 75 270q3 11-5 18l-231 203h276q12 0 17 11l127 301 129-301q5-11 16-11h274l-228-198q-4-5-5-12t4-14 13-5 13 4l262 230q10 8 6 20z" horiz-adv-x="1000" />
<glyph glyph-name="category" unicode="&#xe802;" d="m744 353q-71 0-121 50l-60 60q-50 50-50 120 0 36 13 67t37 55l60 60q25 25 56 37t65 13 66-13 55-37l61-60q50-50 50-122 0-34-14-65t-36-55l-61-60q-50-50-121-50z m0 427q-55 0-96-40l-60-61q-19-18-29-43t-10-53q0-55 39-94l60-61q13-13 29-21t33-14 34-5q56 0 96 40l59 61q41 39 41 94 0 28-11 53t-30 43l-59 61q-20 19-44 29t-52 11z m-461-409h-86q-70 0-120 49t-51 121v85q0 72 51 122t120 49h86q71 0 121-49t50-122v-85q0-71-50-121t-121-49z m-86 390q-17 0-35-5t-33-13-27-21-21-27-14-32-4-37v-85q0-55 39-95t95-40h86q56 0 95 40t40 95v85q0 56-40 96t-95 39h-86z m590-884h-86q-70 0-120 50t-51 121v85q0 71 51 121t120 50h86q70 0 121-50t50-121v-85q0-47-23-86t-62-62-86-23z m-86 391q-55 0-95-40t-40-95v-85q0-55 40-96t95-40h86q56 0 95 40t40 96v85q0 22-7 43t-19 37-30 29-37 19-42 7h-86z m-418-391h-86q-70 0-120 50t-51 121v85q0 71 51 121t120 50h86q71 0 121-50t50-121v-85q0-35-14-67t-36-54-55-37-66-13z m-86 391q-55 0-95-40t-39-95v-85q0-55 39-96t95-40h86q56 0 95 40t40 96v85q0 28-11 52t-29 43-43 29-52 11h-86z" horiz-adv-x="1000" />
<glyph glyph-name="user" unicode="&#xe803;" d="m687-122q-5 0-10 3-14 9-34 15t-36 8-25 3h-21l-35-1h-435q-4 0-7 1t-6 4-4 6-2 7v23q-2 37 21 76 20 34 57 58 45 30 112 42h1q34 4 69 13 27 8 44 16t19 11 3 3q0 2 1 4 2 11 0 39-2 32-15 60t-24 43-30 37q-5 5-7 8t-6 7-6 8-5 6q-29 41-31 88v1q0 19 17 34l1 1v0 3q0 2-1 4v3q-13 68-1 135 0 14 5 28t12 24 13 19 12 13 5 5q6 5 10 9t7 8q0 1 0 1t1 1q-1 1-1 2-6 15-4 25 1 7 6 13t17 10q5 1 9 2t11 0h2q43 3 68 1 48-4 89-14t66-19 43-22 25-16 8-9h1q10-13 18-28t13-33q1-5 2-10t2-9q6-39 2-95 0-10-1-20t-2-24q-1-5 0-6l2-3q9-8 12-17 1-4 2-7t0-9v-1q-1-6-2-15t-9-32-20-41q-6-9-24-29-19-22-30-37t-23-43-16-60q-3-28-1-39l2-4q0-1 3-3t20-11 43-16q9-2 21-4t19-4 15-3 10-2 4 0h1q68-13 113-42 37-25 57-59 22-38 19-76v-22q0-8-5-13t-12-5h-173q-16 4-19 18 0 8 6 13t13 6h154v4 2q2 27-15 56-17 27-46 46-38 25-98 35-37 5-73 15-25 7-43 14t-27 14-14 13-7 13q-7 12-3 58 1 17 5 33t8 27 11 26 13 22 14 20 13 17 14 15q6 6 8 10t7 8 7 8q20 31 23 69v3q0 1-4 5l-4 4q-11 14-8 35 3 23 4 40 3 52-3 87v1q-1 1-1 3v4l-2 4q0 2-1 4-1 9-5 17t-7 15-10 14l-2 2q-2 1-6 5t-8 6-12 8-16 8q-65 31-163 38-23 2-63 0h-2q-4 0-7-1 6-13 2-24-2-6-6-12-4-7-10-13t-14-13q-1-2-4-4t-8-9-10-14-8-17-4-20v-2q-11-61 1-123v-3q5-26-11-41l-5-6v0-1q1-6 2-13t6-25 16-31q5-8 21-26 21-24 33-40t28-50 18-70q4-46-3-58-5-15-25-28t-66-26q-11-3-22-5t-18-4-16-3-12-2-5-1q-60-9-98-34-15-10-26-21t-20-25q-18-30-17-57v-2-4h417 36 21 1q69-2 114-32 6-3 8-11t-3-14l-3-3q-1-1-2-2t-3-1-4-1-3-1z m-71 298q1 0 2-1-1 0-1 1t-1 0z m-212 0q-1 0-1-1z" horiz-adv-x="1000" />
<glyph glyph-name="home" unicode="&#xe804;" d="m726-131q-6 0-11 2-34 23-92 25h-20q-20 0-35 14t-14 39v108q0 5-1 9t-2 8-3 7-5 5q-17 15-44 13h-1q-14-1-23-4t-14-10q-9-10-8-25v-2-1-108q0-14-4-23t-10-16-15-10-12-4-7 0h-216q-20 0-34 14t-13 33v392q0 7-3 10-1 1-3 2t-3 1h-4v0q-21 0-35 15t-15 35q0 18 13 32l1 1 377 378q11 12 25 14t23-1 16-10l1-1 381-381q13-14 13-32 0-14-6-24t-16-17-24-9h-1-1q-7 0-11-3t-4-10v-385-2q0-20-10-34-3-5-9-10t-13-6-15-2h-36q-7 0-12 5t-5 13q3 16 17 18h36q6 1 8 4 1 1 2 4t1 7v388q0 20 13 34t32 15h1 1q4 1 7 2t4 3 3 4 1 5q0 4-3 8l-379 379q-7 5-14-1l-377-378q-3-4-3-8 0-6 4-10t9-4q20 1 35-12 14-14 14-37v-393q1-10 11-10h216q1 0 3 1l4 2q1 0 2 1t1 2 2 4 0 7v107 13q0 7 4 18t12 21q7 9 16 15t21 9 26 3q43 4 71-21 23-21 24-57v-108q0-9 3-13t9-4h3 18q67-1 111-30 4-2 7-7t2-9-4-9q-5-8-14-8z" horiz-adv-x="1000" />
<glyph glyph-name="search" unicode="&#xe805;" d="m964-60l-171 170q46 55 71 122t25 141q0 113-56 208t-150 151-207 56-208-56-150-151-55-208 55-207 150-150 208-56q145 0 258 92l171-171z m-861 433q0 102 50 188t136 136 187 51q60 0 117-20t102-53 81-81 54-103 19-118q0-100-51-187t-136-136-186-50q-148 0-255 102-106 99-117 242-1 15-1 29z" horiz-adv-x="1000" />
<glyph glyph-name="setting" unicode="&#xe806;" d="m502-105q-55 0-89 15-11 4-11 15-1 5-1 9v13l-3 41q0 7-1 9-7 3-23 8-5 2-8 3t-7 3-6 3q-5 2-13 6-9 5-13 6-4 2-8-2t-13-12l-8-8-28-24q-10-9-22-2-25 16-47 35t-35 33-22 29-13 21-5 9q-4 11 4 18l26 31q3 2 7 7 8 8 12 12 1 4-3 13-1 3-4 10-2 3-3 5t-2 5-2 4q-3 6-6 17-6 21-10 22-16 5-49 6-14 0-22 1-6 0-10 4t-5 10q-6 20-9 42t-3 38 1 32 4 26 4 20 4 12 2 6q4 10 15 10l73 4q6 19 15 37t18 35l-51 57q-9 10-2 21 16 26 35 48t33 35 29 22 21 13 9 4q11 5 18-3l59-53q30 16 64 26l4 79q1 11 11 15 3 2 9 4t24 6 37 4 48 0 58-10q13-3 14-16l4-83q35-11 67-28l60 56q9 8 20 3 3-1 9-4t21-13 29-22 33-35 35-48q3-5 2-11t-4-10l-57-63q9-16 16-32t13-34l83-4q10 0 15-10 0-1 1-4t3-8 3-12 4-17 2-20 1-24-1-28-3-30-7-33q-1-6-6-10t-10-4l-81-6q-10-35-27-68l53-59q8-7 3-18t-14-25q-4-6-11-8t-13 3-8 11 3 13l6 10-54 58q-9 10-3 22 8 13 14 26t11 28 8 29q3 13 16 14l82 4q15 73-2 131l-83 4q-13 1-17 14-11 42-34 80-2 3-2 7t1 7 3 7l56 63q-40 62-93 91l-62-56q-9-9-21-2-38 22-81 33-12 3-13 17l-6 82q-29 7-57 7t-44-2-29-6l-4-80q0-6-4-10t-9-7q-22-5-42-12t-38-19q-12-6-21 3l-58 52q-6-3-13-8t-17-13-20-17-21-24-22-29l50-57q9-10 2-21-26-41-38-87-4-12-17-13l-73-4q-17-58-2-130 2 0 7-1 38 0 57-6 12-3 20-13t10-16 6-18q2-9 3-13l7-14q3-6 5-9 2-7 4-13t1-10 0-9-1-7-3-6-4-5q-1-1-2-3t-3-3-2-3-3-3l-2-3-7-7-19-20q30-53 92-93l17 16q1 1 3 2t2 2l2 2q6 5 9 8t10 8 12 6 13 2 15-2q7-3 17-9 3-1 4-2l3-1q2-1 3-2 6-3 19-6 18-6 27-11 8-4 12-9t7-11 3-10 1-9q1-9 1-19t1-23v-3-3q0-1 1-3 58-16 129-1l5 75q0 4 2 7t5 6 7 3q48 12 90 39 12 8 21-1l58-51h1l2 2q34 23 97 25 7 0 12-5t6-12q0-5-2-9t-7-7-8-3q-51-1-77-18h-1q-7-6-16-11-5-3-11-3t-10 5l-57 51q-36-21-77-33l-4-76q-1-12-14-15-16-4-31-7t-29-4-27-1z m3 235q-92 0-157 66t-66 157q0 45 17 85t49 73q65 65 157 65t158-65 66-158-66-157q-32-31-73-49t-85-17z m0 410q-77 0-132-55t-55-132 55-132 132-55q51 0 94 25t69 68 24 94q0 38-14 73t-40 59-60 40-73 15z" horiz-adv-x="1000" />
<glyph glyph-name="home-fill" unicode="&#xe807;" d="m780-96h51q13 0 22 8t8 22v161 245q0 14 9 23t23 10q15 1 24 10t8 22q0 6-2 11t-6 10l-401 350q-12 10-23 0l-401-350q-2-2-4-4t-2-6-1-5-1-6q0-9 4-16t12-12 16-4h3q2 0 8-2t10-4 7-10 4-17v-245-161q0-13 8-22t22-8h224l2 1q1 0 4 0t6 2 7 4 6 6 5 9 2 14v112q1 1-1 7t2 14 9 18 19 16 34 8q1-1 8 0t19-3 23-8 20-19 8-33v-112q0-16 8-25t16-10l7-1h63l91 1z" horiz-adv-x="1000" />
<glyph glyph-name="setting-fill" unicode="&#xe808;" d="m945 261q11 52 11 90t-7 58l-7 21-97 5q-13 46-37 86l66 75q-9 15-18 28t-20 23-18 20-17 16-16 12-13 9-11 6-6 3l-3 1-72-66q-21 13-43 21t-45 16l-6 98q-21 6-42 8t-37 2-30-1-26-2-18-4-12-4l-4-1-5-95q-15-4-30-9t-29-11-28-14l-68 62q-2-1-5-2t-10-6-16-10-20-15-23-22-24-28-24-35q4-4 20-18t24-27 10-25q0-4-9-27t-16-43-10-22l-88-4q-1-3-2-8t-6-22-5-35 1-47 10-57l87-6q2-8 5-17t5-17l6-15q3-9 7-17l8-16q4-8 8-15l-57-64 4-7q2-5 11-19t21-29 34-32 47-34l65 58q23-14 47-24t50-16l5-87q2-1 7-3t23-5 35-5 47 1 57 10l6 90q52 14 98 43l69-62q40 24 69 55t39 49l9 17-62 71q23 41 34 89z m-441-129q-87 0-148 62t-62 148 62 149 149 61q28 0 56-7t50-21 42-33 33-43 21-50 8-56q0-87-62-148t-149-62z" horiz-adv-x="1000" />
<glyph glyph-name="collect-fill" unicode="&#xe809;" d="m983 467q-3 10-13 10h-313l-143 332q-3 9-13 9-3 0-5-2t-5-3-3-4l-139-332h-317q-5 0-8-2t-5-7 0-9 4-7l261-230-87-308q-1-4 1-7t5-7q8-6 16-1l282 181 282-181q4-2 8-2 2 0 3 0t2 1 4 2q3 3 4 7t1 7l-83 313 258 225q2 3 4 7t-1 8z" horiz-adv-x="1000" />
<glyph glyph-name="user-fill" unicode="&#xe80a;" d="m612-109h-23-36-487v23q2 0 0 7t3 20 9 27 18 32 32 32 50 27 71 20q6 1 16 2t35 7 47 13 38 16 20 22q1 0 2 3t1 14-1 34q-3 35-16 66t-27 49-32 40-25 29q-8 11-13 24t-9 22-4 19-3 14v4q0 11 12 22 9 8 5 28-2 14-3 32t-2 35 1 36 3 32q2 44 43 81 7 5 12 10t8 12q3 4 4 7 1 5 0 10t-4 10-1 10q1 6 9 8t20 2q21 1 35 2t34-2q152-11 222-69l8-7q6-8 11-17t9-19 7-20 4-18q7-38 4-95-1-7-2-14t-1-15-2-15q-1-5 0-10t4-10l4-4q2-2 3-3t2-4 3-5q1-4 1-10v-2q0-2-1-7l-2-12q-1-5-3-13t-5-15-8-16-10-18q-6-7-25-29t-32-40-27-49-16-66l2-51q8-37 146-58l10-2q144-27 176-123 6-18 6-42v-23h-128 20-18-35-169z" horiz-adv-x="1000" />
<glyph glyph-name="qq" unicode="&#xe80b;" d="m655-90h-19q-27 2-51 7t-45 12-32 16l-1 1q-1 1-3 1t-2 1-2 1q-4-1-8-3v-1q-41-30-129-35h-18q-56 0-92 15-46 20-48 56-2 40 50 67-27 33-44 71-7-10-14-19-11-14-22-20t-20-6q-16 0-24 15v1q-34 71-10 158 17 59 56 114 0 2 1 5 0 11 3 24 1 10 3 19t7 22 11 22v5 5 6q0 8-1 13-1 58 22 115t66 102q14 14 29 27t32 22 34 18q56 25 116 26v0q60-1 114-25 53-24 94-66 44-45 66-102t22-117q-1-5-1-13v-15q5-9 9-18t6-16 5-15l3-14q2-13 4-24v-5q37-53 54-115 11-42 9-83t-15-74l-1-1q-7-16-24-16-26 0-56 46-16-39-44-72 51-27 49-67-2-36-47-56-37-15-92-15z m-126 64q15-11 45-18t64-9h9 8q47 0 75 10t28 26q1 11-13 22t-36 20l-27 10 20 19q48 48 66 113l12 47 22-44q18-39 38-56 19 59 1 123t-51 108l-7 11 3 5q-4 46-24 79l-3 6v6q1 4 1 18v14q1 52-19 102t-58 90q-77 80-183 81-51-1-99-22t-86-60q-26-26-43-57t-27-66-8-68v-14q0-14 1-18v-6l-3-6q-19-32-22-78l4-6-8-11q-7-10-14-21t-17-30-17-40-11-44-2-48 11-49q20 16 39 57l21 44 12-47q19-65 67-113l19-19-26-10q-22-8-36-20t-14-22q1-15 29-26t75-10h17q76 4 109 27 12 10 27 11h2 1q8 0 15-3t13-8z" horiz-adv-x="1000" />
<glyph glyph-name="qq-fill" unicode="&#xe80c;" d="m113 270q-24-58-28-106t17-58q13-7 33 7t40 45q15-65 74-114-30-11-47-28t-17-37q0-16 12-30t33-26 49-17 60-6q13 0 25 1t24 3 22 5 20 6 18 8 15 9 13 11 9 11 6 12h5 8 6q4-14 17-26t34-21 46-14 55-5q64 0 109 23t44 56q0 20-17 37t-47 28q59 49 74 114 21-31 40-45t33-7q20 10 17 58t-28 106q-20 45-44 76t-44 39q1 6 1 12 0 12-2 23t-6 21-10 18v4q0 17-7 31-4 122-79 202t-196 80q-49 0-91-14t-75-40-57-61-37-78-15-89q-7-14-7-31v-4q-8-13-13-29t-5-33q0-6 1-12-20-8-44-39t-44-76z" horiz-adv-x="1000" />
<glyph glyph-name="category-fill" unicode="&#xe80d;" d="m866 422q-30-30-71-41t-82 0-71 41l-63 63q-47 46-47 112t47 112l63 63q15 15 34 25t38 16 40 5 40-5 38-16 34-25l63-63q46-46 46-112t-46-112z m-431 131q0-18-5-36t-12-34-19-29-24-25-29-19-34-12-37-4h-87q-67 0-113 46t-47 113v88q0 43 22 80t57 58 81 21h87q66 0 113-47t47-112v-88z m522-512q0-26-8-50t-23-43-34-35-44-23-50-8h-88q-43 0-80 22t-58 58-21 79v88q0 17 3 33t10 29 14 27 20 24 23 19 27 15 30 9 32 4h88q65 0 112-47t47-113v-88z m-522 0q0-26-9-50t-23-43-34-35-43-23-51-8h-87q-67 0-113 47t-47 112v88q0 67 47 113t113 47h87q33 0 62-13t51-34 34-51 13-62v-88z" horiz-adv-x="1000" />
<glyph glyph-name="close" unicode="&#xe80e;" d="m513 351l384 386q4 5 4 12t-4 13-13 5-13-5l-384-386-382 386q-6 5-14 5t-12-5-6-13 5-12l384-386-384-385q-3-4-4-8t0-9 5-8q5-6 12-6t14 6l382 385 384-385q3-3 6-5t7-1 7 1 6 5q4 5 4 12t-4 13z" horiz-adv-x="1000" />
<glyph glyph-name="more-fill" unicode="&#xe80f;" d="m261 348q0-43-30-74t-74-30-74 30-30 74 30 74 74 31 74-31 30-74z m344 0q0-43-31-74t-73-30-74 30-30 74 30 74 74 31 73-31 31-74z m344 0q0-43-30-74t-74-30-74 30-31 74 31 74 74 31 74-31 30-74z" horiz-adv-x="1000" />
<glyph glyph-name="more" unicode="&#xe810;" d="m240 289q-34 0-58 24t-25 59q0 16 7 31t18 27 26 17 32 7q33 0 58-24t24-58-24-59-58-24z m0 125q-9 0-16-4t-14-9-9-13-4-16q0-18 13-31t30-12 30 12 12 31q0 11-6 21t-15 15-21 6z m271-125q-33 0-58 24t-24 59 24 58 58 24 58-24 25-58-25-59-58-24z m0 125q-18 0-30-13t-12-29 12-31 30-12q12 0 21 5t16 16 6 22q0 17-13 29t-30 13z m271-125q-34 0-58 24t-24 59 24 58 58 24 59-24 24-58-24-59-59-24z m0 125q-17 0-30-13t-12-29 12-31 30-12q5 0 9 1t8 2 7 4 7 5 5 7 4 7 2 8 1 9q0 17-12 29t-31 13z" horiz-adv-x="1000" />
<glyph glyph-name="location" unicode="&#xe811;" d="m429 493q0 59-42 101t-101 42-101-42-42-101 42-101 101-42 101 42 42 101z m142 0q0-61-18-100l-203-432q-9-18-27-29t-37-11-38 11-26 29l-204 432q-18 39-18 100 0 118 84 202t202 84 202-84 83-202z" horiz-adv-x="571.4" />
<glyph glyph-name="chat" unicode="&#xe812;" d="m172-82h-1q-4 0-7 2t-6 4-4 5q-6 10 1 20 49 69 58 135-184 123-184 303 0 111 63 200t171 139 236 49 235-49 170-139 63-199-63-200-170-138-236-50q-58 0-115 13-13-14-29-26t-43-30-63-28-76-11z m326 819q-118 0-216-45t-156-124-59-181q0-165 175-276 9-6 9-17 0-7-1-19t-12-48-31-68q20 3 39 10t33 14 29 17 22 17 17 14 10 10 4 5q7 9 19 6 58-13 118-13 118 0 217 44t156 124 58 180q0 75-34 141t-92 111-137 71-168 27z" horiz-adv-x="1000" />
<glyph glyph-name="chat-fill" unicode="&#xe813;" d="m919 571q65-88 65-192t-65-192-176-139-243-51q-101 0-192 33l1-3-293-88q36 49 58 104t26 87l3 31q-87 98-87 218 0 104 65 192t176 139 243 51 243-51 176-139z" horiz-adv-x="1000" />
</font>
</defs>
</svg>
